<svg width="15" height="14" viewBox="0 0 15 14" fill="none" xmlns="http://www.w3.org/2000/svg">
<path d="M13.561 4.525L9.975 0.939005C9.69361 0.657743 9.31201 0.499784 8.91415 0.499878C8.51629 0.499972 8.13476 0.65811 7.8535 0.939505C7.57224 1.2209 7.41428 1.6025 7.41437 2.00036C7.41447 2.39822 7.57261 2.77974 7.854 3.061L10.293 5.5H1.5C1.10218 5.5 0.720644 5.65804 0.43934 5.93934C0.158035 6.22065 0 6.60218 0 7C0 7.39783 0.158035 7.77936 0.43934 8.06067C0.720644 8.34197 1.10218 8.5 1.5 8.5H10.293L7.854 10.939C7.57261 11.2203 7.41447 11.6018 7.41437 11.9997C7.41428 12.3975 7.57224 12.7791 7.8535 13.0605C8.13476 13.3419 8.51629 13.5 8.91415 13.5001C9.31201 13.5002 9.69361 13.3423 9.975 13.061L13.561 9.47501C14.2162 8.81797 14.5842 7.92792 14.5842 7C14.5842 6.07209 14.2162 5.18204 13.561 4.525Z" fill="#212529"/>
</svg>
